<svg id="Layer_3" enable-background="new 0 0 64 64" height="512" viewBox="0 0 64 64" width="512" xmlns="http://www.w3.org/2000/svg"><g><path d="m34.086 37.672c.223-.974-.036-2.036-.793-2.793l-2.205-2.205c.05-.219.083-.444.083-.674 0-.801-.312-1.555-.878-2.121l-1.172-1.172c-.727-.727-1.799-.981-2.775-.775l-2.225-2.225c-1.17-1.17-3.072-1.17-4.242 0l-3.402 3.402c-.318-.068-.644-.109-.977-.109-1.234 0-2.395.48-3.268 1.354l-3.768 3.768c-.944.944-1.464 2.199-1.464 3.535v6.929l-5.707 5.707 1.414 1.414 6-6c.188-.187.293-.442.293-.707v-7.343c0-.79.32-1.562.878-2.121l3.768-3.768c.99-.99 2.717-.99 3.707 0l8.233 8.232-.464.464c-1.17 1.17-3.073 1.17-4.243 0l-4.171-4.171c-.391-.391-1.023-.391-1.414 0-.196.195-.294.451-.294.707s.098.512.293.707c2.918 2.918 2.918 7.667 0 10.586l1.414 1.414c2.149-2.148 3.049-5.08 2.701-7.885l.056.056c.954.955 2.202 1.435 3.455 1.455l.96.96c.545.545 1.25.826 1.966.863.037.715.317 1.421.863 1.966l1.172 1.172c.246.246.531.433.836.578l-4.25 4.25c-.56.558-1.333.878-2.123.878h-3.343c-.265 0-.52.105-.707.293l-7 7 1.414 1.414 6.707-6.707h2.929c1.335 0 2.591-.52 3.535-1.464l5.829-5.829-.04-.04c.162-.108.314-.233.455-.374l4.172-4.172c.566-.566.878-1.32.878-2.121s-.312-1.555-.878-2.121zm-6.379-7.551 1.172 1.172c.39.39.39 1.024 0 1.414l-3.879 3.879-2.586-2.586 3.879-3.879c.39-.39 1.024-.39 1.414 0zm-9.327-.087 2.913-2.913c.39-.39 1.024-.39 1.414 0l1.879 1.879-3.586 3.586-2.232-2.232c-.12-.121-.258-.214-.388-.32zm6.835 12.767c.474-.235.927-.528 1.321-.922l1.171-1.171c.391-.391.391-1.023 0-1.414l-1.293-1.294 3.586-3.586 1.879 1.879c.188.189.292.44.292.707s-.104.518-.292.707l-4.586 4.586-.586.586c-.39.39-1.024.39-1.414 0zm9.664-.094-4.172 4.172c-.39.39-1.024.39-1.414 0l-1.172-1.172c-.188-.189-.292-.44-.292-.707s.104-.518.292-.707l.586-.586 4.293-4.293 1.879 1.879c.39.39.39 1.024 0 1.414z"/><path d="m47.599 33.72c.316.068.639.108.969.108 1.23 0 2.387-.481 3.257-1.356l3.748-3.767c.94-.944 1.458-2.199 1.458-3.534v-6.921l5.668-5.535-1.397-1.431-5.97 5.829c-.192.188-.301.446-.301.715v7.343c0 .802-.311 1.557-.875 2.124l-3.749 3.767c-.983.989-2.694.989-3.678 0l-8.193-8.233.464-.467c.562-.565 1.311-.877 2.105-.877s1.542.312 2.105.877l4.151 4.171c.389.392 1.022.393 1.414.004.392-.39.394-1.023.004-1.414-2.905-2.92-2.905-7.67 0-10.589l-1.418-1.411c-2.135 2.146-3.031 5.073-2.688 7.874l-.045-.046c-.921-.926-2.141-1.437-3.441-1.458l-.951-.956c-.526-.528-1.234-.8-1.955-.837-.031-.724-.311-1.44-.86-1.992l-1.166-1.171c-.215-.216-.467-.378-.731-.512l4.128-4.149c.556-.557 1.323-.876 2.107-.876h3.327c.266 0 .521-.106.709-.295l5.97-6-1.418-1.41-5.677 5.705h-2.911c-1.312 0-2.596.534-3.523 1.466l-5.585 5.614c-.225.126-.44.271-.626.458l-4.15 4.171c-1.163 1.169-1.163 3.071 0 4.239l2.197 2.208c-.222.973.035 2.036.788 2.792l2.197 2.208c-.222.973.035 2.036.788 2.792l1.166 1.171c.565.568 1.316.88 2.116.88.228 0 .451-.032.668-.082l2.191 2.201c.563.569 1.315.882 2.115.882.799 0 1.551-.313 2.116-.88zm-18.307-13.601 4.15-4.171c.374-.376 1.022-.376 1.396 0l1.166 1.171c.389.391.389 1.027 0 1.417l-.583.586-4.266 4.287-1.863-1.873c-.389-.39-.389-1.026 0-1.417zm2.985 5.001 5.146-5.171c.374-.376 1.022-.375 1.396 0l.078.078c-.477.239-.927.536-1.314.926l-1.166 1.172c-.388.39-.388 1.021 0 1.411l1.288 1.294-3.565 3.58-1.863-1.873c-.389-.391-.389-1.027 0-1.417zm4.15 7.588-1.166-1.171c-.389-.391-.389-1.027 0-1.417l3.854-3.873 2.569 2.582-3.861 3.88c-.373.375-1.022.375-1.396-.001zm4.975 3-1.871-1.88 3.564-3.582 2.216 2.227c.12.121.258.215.388.32l-2.901 2.915c-.372.377-1.023.376-1.396 0z"/><path d="m14 7.929h2v14.142h-2z" transform="matrix(.707 -.707 .707 .707 -6.213 15)"/><path d="m22 6h2v12h-2z"/><path d="m6 22h12v2h-12z"/><path d="m48 41.929h2v14.142h-2z" transform="matrix(.707 -.707 .707 .707 -20.297 49)"/><path d="m46 40h12v2h-12z"/><path d="m40 46h2v12h-2z"/></g></svg>