<svg id="Capa_1" enable-background="new 0 0 512 512" height="512" viewBox="0 0 512 512" width="512" xmlns="http://www.w3.org/2000/svg"><g><path d="m126 166v46.079c-10.061 3.504-18.346 10.873-23.003 20.835l-19.762 42.372c-12.745 27.348-6.59 59.665 15.319 80.416l57.446 54.391v91.907c0 5.523 4.478 10 10 10h45c5.522 0 10-4.477 10-10s-4.478-10-10-10h-35v-86.21c0-2.747-1.13-5.373-3.125-7.261l-60.568-57.349c-15.65-14.823-20.048-37.909-10.944-57.443l19.756-42.361c4.795-10.256 16.778-14.262 26.585-9.683l98.786 46.06c-13.845 18.697-39.428 25.756-61.313 15.555l-27.19-12.68c-5.006-2.336-10.956-.168-13.289 4.836-2.335 5.005-.169 10.955 4.836 13.29l27.191 12.681c11.146 5.196 23.669 7.509 36.603 6.182 21.101 22.797 32.672 52.257 32.672 83.503 0 5.523 4.478 10 10 10s10-4.477 10-10c0-32.832-10.991-63.967-31.218-89.223 14.893-6.625 27.557-18.434 34.97-34.33.004-.008.006-.016.01-.024 4.967 2.215 10.458 3.457 16.238 3.457 8.928 0 17.182-2.942 23.845-7.906 6.422 13.528 20.212 22.906 36.155 22.906 6.159 0 11.996-1.402 17.212-3.899-2.758 17.952-7.226 34.321-11.858 51.261-7.548 27.605-15.354 56.15-15.354 92.638v56h-35c-5.522 0-10 4.477-10 10s4.478 10 10 10h45c5.522 0 10-4.477 10-10v-66c0-33.802 7.114-59.819 14.646-87.362 7.548-27.605 15.354-56.15 15.354-92.638v-60c0-22.056-17.944-40-40-40-8.928 0-17.182 2.942-23.845 7.906-6.422-13.528-20.212-22.906-36.155-22.906-8.928 0-17.182 2.942-23.845 7.906-6.422-13.528-20.212-22.906-36.155-22.906-11.938 0-22.665 5.264-30 13.585-7.335-8.321-18.062-13.585-30-13.585-22.056 0-40 17.944-40 40zm200 30c0-11.028 8.972-20 20-20s20 8.972 20 20v60c0 11.028-8.972 20-20 20s-20-8.972-20-20zm-60-15c0-11.028 8.972-20 20-20s20 8.972 20 20v60c0 11.028-8.972 20-20 20s-20-8.972-20-20zm-60-15c0-11.028 8.972-20 20-20s20 8.972 20 20v75c0 5.696 1.205 11.114 3.361 16.024l-43.361-20.217zm-60 0c0-11.028 8.972-20 20-20s20 8.972 20 20v61.482l-29.839-13.912c-3.248-1.517-6.667-2.577-10.161-3.177z"/><path d="m266 46v-36c0-5.523-4.478-10-10-10s-10 4.477-10 10v36c0 5.523 4.478 10 10 10s10-4.477 10-10z"/><path d="m170.999 78.781c4.783-2.761 6.423-8.876 3.662-13.66l-15-25.99c-2.761-4.784-8.877-6.424-13.66-3.663s-6.423 8.876-3.662 13.66l15 25.99c2.752 4.769 8.864 6.432 13.66 3.663z"/><path d="m90.119 127.339-25.99-15c-4.788-2.762-10.901-1.121-13.66 3.663-2.761 4.783-1.121 10.899 3.662 13.66l25.99 15c4.763 2.748 10.888 1.142 13.66-3.663 2.761-4.784 1.121-10.899-3.662-13.66z"/><path d="m354.661 75.119 15-25.99c2.761-4.783 1.121-10.899-3.662-13.66-4.787-2.762-10.899-1.12-13.66 3.663l-15 25.99c-2.761 4.783-1.121 10.899 3.662 13.66 4.764 2.747 10.887 1.141 13.66-3.663z"/><path d="m431.879 144.661 25.99-15c4.783-2.761 6.423-8.876 3.662-13.66-2.762-4.783-8.876-6.425-13.66-3.663l-25.99 15c-4.783 2.761-6.423 8.876-3.662 13.66 2.752 4.769 8.864 6.432 13.66 3.663z"/><circle cx="256" cy="502" r="10"/></g></svg>